# xmcd
#
# Track frame offsets: 
#        183
#        30708
#        58155
#        109755
#        164095
#        184475
#
# Disc length: 3018 seconds
#
# Revision: 5
# Processed by: cddbd v1.5.2PL0 Copyright (c) Steve Scherf et al.
# Submitted via: ExactAudioCopy v1.0b3
#
DISCID=560bc806
DTITLE=Alfred Brendel - Frédéric Chopin - [CD27) Chopin: Polonaises
DYEAR=2008
DGENRE=Classical
TTITLE0=Polonaise  in A flat major Op.53  'Heroic'
TTITLE1=Polonaise  in C minor Op.40 No.2
TTITLE2=Polonaise  in F sharp minor Op.44
TTITLE3=Polonaise-fantaisie  in A flat major Op.61
TTITLE4=Andante spianato et Grande Polonaise brillante  in E flat majo
TTITLE4=r Op.22 - Andante spinato
TTITLE5=Andante spianato et Grande Polonaise brillante  in E flat majo
TTITLE5=r Op.22 - Grande polonaise brillante
EXTD=YEAR: 1968
EXTT0=
EXTT1=niet tweedelig
EXTT2=
EXTT3=
EXTT4=
EXTT5=
PLAYORDER=
